<svg xmlns="http://www.w3.org/2000/svg" width="260" height="57.3333333333" viewBox="0 0 195 43" fill="none"><path d="M180.054 30.9803C180.054 25.1108 180.054 19.2855 180.054 13.416C180.142 13.416 180.23 13.3718 180.274 13.3718C182.349 13.3718 184.469 13.3718 186.544 13.3718C188.398 13.3718 190.12 13.8573 191.621 15.0047C193.166 16.1521 194.137 17.6967 194.623 19.5061C195.285 22.0216 195.109 24.4489 193.828 26.7878C192.548 29.0827 190.605 30.4066 188.045 30.848C187.471 30.9362 186.897 30.9803 186.279 30.9803C184.336 30.9803 182.349 30.9803 180.407 30.9803C180.319 30.9803 180.186 30.9803 180.054 30.9803ZM182.614 28.4207C182.747 28.4207 182.835 28.4207 182.968 28.4207C184.071 28.4207 185.175 28.4207 186.279 28.4207C186.72 28.4207 187.206 28.3766 187.647 28.2883C189.502 27.9794 190.87 26.9644 191.753 25.3315C192.548 23.831 192.724 22.2423 192.327 20.6094C192.062 19.4179 191.488 18.3587 190.605 17.5202C189.457 16.4169 188.089 15.9315 186.544 15.9315C185.307 15.9315 184.071 15.9315 182.835 15.9315C182.747 15.9315 182.659 15.9315 182.57 15.9315C182.614 20.124 182.614 24.2282 182.614 28.4207Z" fill="#050708"></path><path d="M163.144 30.9364C163.144 25.0669 163.144 19.2415 163.144 13.4161C166.72 13.4161 170.252 13.4161 173.828 13.4161C173.828 14.2546 173.828 15.0931 173.828 15.9316C171.135 15.9316 168.442 15.9316 165.705 15.9316C165.705 17.5645 165.705 19.1974 165.705 20.8744C168.354 20.8744 171.003 20.8744 173.608 20.8744C173.696 21.095 173.696 22.9927 173.652 23.434C171.003 23.434 168.398 23.434 165.749 23.434C165.661 23.6547 165.661 27.9354 165.705 28.4209C168.398 28.4209 171.091 28.4209 173.828 28.4209C173.828 29.2594 173.828 30.0979 173.828 30.9364C170.296 30.9364 166.72 30.9364 163.144 30.9364Z" fill="#050708"></path><path d="M147.251 15.9314C147.251 20.9624 147.251 25.9493 147.251 30.9362C146.412 30.9362 145.573 30.9362 144.734 30.9362C144.734 25.0667 144.734 19.2413 144.734 13.3718C144.778 13.3718 144.822 13.3718 144.867 13.3718C147.074 13.3718 149.237 13.3277 151.445 13.3718C152.946 13.4159 154.226 13.9014 155.286 14.9605C156.213 15.8873 156.699 17.0347 156.831 18.3145C156.963 19.3737 156.787 20.3887 156.345 21.3155C155.639 22.8601 154.403 23.831 152.725 24.2282C152.593 24.2723 152.46 24.2723 152.328 24.3164C154.182 26.523 155.992 28.6855 157.846 30.892C157.758 30.892 157.67 30.892 157.626 30.892C156.699 30.892 155.771 30.892 154.8 30.892C154.624 30.892 154.491 30.8479 154.359 30.6714C152.328 28.2441 150.297 25.7728 148.266 23.3455C148.134 23.2131 148.089 23.0807 148.089 22.9042C148.089 22.5953 148.089 22.2864 148.089 21.9775C148.222 21.9775 148.31 21.9775 148.443 21.9775C149.281 21.9775 150.12 21.9775 150.959 21.9775C151.312 21.9775 151.71 21.9333 152.063 21.8451C153.299 21.5361 154.094 20.5211 154.226 19.2854C154.403 17.476 153.167 15.9756 151.356 15.9314C150.076 15.9314 148.663 15.9314 147.251 15.9314Z" fill="#050708"></path><path d="M124.911 13.416C125.75 13.416 126.589 13.416 127.472 13.416C127.472 13.5484 127.472 13.6807 127.472 13.769C127.472 17.6526 127.472 21.5362 127.472 25.4198C127.472 25.6845 127.472 25.9935 127.56 26.2583C127.693 26.832 128.002 27.2733 128.443 27.6263C129.061 28.1559 129.812 28.4207 130.607 28.509C131.578 28.6414 132.549 28.5531 133.476 28.1559C133.918 27.9794 134.315 27.7146 134.624 27.3615C135.066 26.8761 135.331 26.3465 135.331 25.6845C135.331 25.2432 135.331 24.8019 135.331 24.3606C135.331 20.8301 135.331 17.2995 135.331 13.7249C135.331 13.5925 135.331 13.5042 135.331 13.3718C136.213 13.3718 137.052 13.3718 137.891 13.3718C137.891 13.5042 137.891 13.6366 137.891 13.7249C137.891 17.6526 137.891 21.6244 137.891 25.5522C137.891 27.3616 137.141 28.7738 135.64 29.8329C134.624 30.539 133.432 30.9362 132.196 31.0686C130.43 31.2451 128.796 30.8921 127.295 29.9653C126.192 29.2592 125.397 28.3324 125.044 27.0526C124.911 26.6113 124.867 26.1259 124.867 25.6404C124.867 21.6686 124.867 17.6526 124.867 13.6807C124.911 13.5925 124.911 13.5042 124.911 13.416Z" fill="#050708"></path><path d="M105.618 25.8612C106.457 25.8612 107.296 25.8612 108.135 25.8612C108.179 25.9936 108.179 26.1701 108.223 26.3466C108.355 26.8762 108.62 27.2734 109.017 27.5823C109.636 28.1119 110.43 28.3767 111.225 28.5091C112.24 28.6856 113.256 28.5091 114.183 28.0677C114.624 27.8912 114.978 27.6264 115.287 27.2734C115.861 26.6114 116.037 25.8612 115.816 25.0227C115.684 24.6255 115.419 24.3166 115.066 24.0959C114.624 23.8311 114.183 23.6987 113.697 23.6105C112.903 23.4781 112.064 23.3898 111.269 23.3015C110.298 23.1691 109.327 22.9926 108.399 22.5954C107.207 22.11 106.324 21.2715 105.971 20.0358C105.309 17.8733 105.927 15.6668 107.958 14.3428C108.973 13.6808 110.077 13.3278 111.269 13.1954C112.505 13.063 113.697 13.2395 114.845 13.725C116.523 14.4311 117.582 15.6226 117.936 17.432C117.936 17.5203 117.98 17.6085 117.98 17.6968C117.98 17.7409 117.98 17.7851 117.98 17.8292C117.141 17.8733 116.346 17.8733 115.507 17.9175C115.463 17.8292 115.463 17.7851 115.419 17.6968C115.243 17.1231 114.889 16.6818 114.404 16.3729C113.83 15.9757 113.212 15.7992 112.505 15.7109C111.534 15.6226 110.563 15.755 109.68 16.1963C109.062 16.5053 108.576 16.9466 108.355 17.6527C108.223 18.094 108.223 18.5794 108.355 19.0208C108.488 19.5062 108.797 19.9034 109.238 20.1241C109.724 20.3888 110.254 20.5212 110.783 20.6095C111.578 20.7419 112.373 20.8302 113.167 20.9184C114.05 21.0508 114.889 21.2273 115.684 21.5804C115.949 21.7128 116.214 21.8452 116.479 21.9776C117.715 22.7278 118.377 23.8752 118.465 25.2875C118.598 27.1851 117.803 28.6415 116.258 29.7006C115.154 30.495 113.874 30.8922 112.505 30.9804C110.916 31.1128 109.459 30.7598 108.09 29.9654C107.34 29.5241 106.722 28.9504 106.28 28.2443C105.927 27.7588 105.574 26.8321 105.618 25.8612Z" fill="#050708"></path><path d="M100.85 30.9363C99.9229 30.9363 99.04 30.9363 98.1128 30.9363C97.4065 29.2152 96.7001 27.494 95.9937 25.7729C93.8745 25.7729 91.7995 25.7729 89.6804 25.7729C88.974 27.494 88.2676 29.2152 87.5612 30.9363C86.6782 30.9363 85.7511 30.9363 84.824 30.9363C87.1639 24.9785 89.5479 19.0649 91.8878 13.1512C92.5059 13.1512 93.124 13.1512 93.7862 13.1512C96.1261 19.0649 98.466 24.9785 100.85 30.9363ZM92.9032 17.2996H92.8591C92.1527 19.3297 91.4022 21.3597 90.6958 23.3898C92.1527 23.3898 93.5655 23.3898 95.0224 23.3898C94.316 21.3156 93.6096 19.2855 92.9032 17.2996Z" fill="#050708"></path><path d="M69.195 13.4161C72.7711 13.4161 76.303 13.4161 79.8791 13.4161C79.8791 14.2546 79.8791 15.0931 79.8791 15.9316C77.186 15.9316 74.4929 15.9316 71.7557 15.9316C71.7557 17.5645 71.7557 19.1974 71.7557 20.8744C74.4046 20.8744 77.0094 20.8744 79.7025 20.8744C79.7025 21.757 79.7025 22.5955 79.7025 23.434C77.0536 23.434 74.4488 23.434 71.7557 23.434C71.7557 25.111 71.7557 26.7439 71.7557 28.4209C74.4488 28.4209 77.186 28.4209 79.8791 28.4209C79.8791 29.2594 79.8791 30.0979 79.8791 30.9364C76.303 30.9364 72.727 30.9364 69.1509 30.9364C69.195 25.111 69.195 19.2856 69.195 13.4161Z" fill="#050708"></path><path d="M49.1073 30.9362C48.2243 30.9362 47.4296 30.9362 46.5466 30.9362C46.5466 25.0667 46.5466 19.2413 46.5466 13.3718C47.3855 13.3718 48.2243 13.3718 49.0631 13.3718C50.8291 16.1963 52.5951 19.0207 54.361 21.8892C56.127 19.0207 57.8929 16.1963 59.6589 13.3718C60.4977 13.3718 61.2924 13.3718 62.1754 13.3718C62.1754 19.2413 62.1754 25.0667 62.1754 30.9362C61.3807 30.9362 60.5419 30.9362 59.6589 30.9362C59.6589 26.8761 59.6589 22.7719 59.6589 18.7118H59.6147C57.8929 21.492 56.127 24.3165 54.361 27.1409C52.5951 24.3165 50.8291 21.492 49.1073 18.7118H49.0631C49.1073 22.7719 49.1073 26.832 49.1073 30.9362Z" fill="#050708"></path><path fill-rule="evenodd" clip-rule="evenodd" d="M0.0110175 2.05867C0.0687665 0.914003 1.0198 0 2.19598 0C2.34729 0 2.48911 0.0172997 2.62727 0.0425285C2.63238 0.0432494 2.63823 0.0439702 2.64554 0.0461326C3.87435 0.282562 4.52787 1.42362 4.52787 1.42435H4.5286V32.8428H0.000783512V2.06155L0.0110175 2.05867ZM5.14911 32.8439V2.06188L9.67766 6.691V32.8439H5.14911ZM5.14917 33.457H9.67772V37.9218H5.14917V33.457ZM15.4487 24.1128V12.5898L17.7119 14.9036L19.9773 12.5905V24.1128L17.7119 26.4267L15.4487 24.1128ZM10.2991 18.8487V7.32487L14.8283 11.9533V23.4763H14.8276L10.2991 18.8487ZM0 33.457H4.52781V37.9218H0V33.457ZM0 38.5345H4.52781V42.9992L4.5227 43H0V38.5345ZM30.8982 33.457H35.4253L35.426 33.462V37.9218H30.8982V33.457ZM32.8004 0.0425285C32.9378 0.0172997 33.0796 0 33.2309 0C34.4064 0 35.3691 0.916165 35.4254 2.06155V32.8428H30.8983V1.42435C30.8983 1.42362 31.5533 0.282562 32.7821 0.0461326C32.7879 0.0439702 32.793 0.0432494 32.8004 0.0425285ZM30.8982 38.5345H35.4253L35.426 38.5409V42.9992L35.4202 43H30.8982V38.5345ZM20.5984 11.9533L25.1269 7.32487V18.8487L20.5984 23.4771V11.9533ZM25.7473 33.457H30.2751L30.2759 33.462V37.9218H25.7473V33.457ZM25.7473 6.69057L30.2751 2.06216L30.2758 2.06649V32.8434H25.7473V6.69057Z" fill="url(#paint0_linear)"></path><defs><linearGradient id="paint0_linear" x1="17.713" y1="0" x2="17.713" y2="43" gradientUnits="userSpaceOnUse"><stop offset="0" stop-color="#F6A74B"></stop><stop offset="1" stop-color="#C74430"></stop></linearGradient></defs></svg> 